<svg width="1200" height="400" viewBox="0 0 1200 400" fill="none" xmlns="http://www.w3.org/2000/svg">
<g clip-path="url(#clip0_9_69)">
<path d="M100 0H0V400H100V0Z" fill="#1C5897"/>
<path d="M200 0H100V400H200V0Z" fill="#83EC8A"/>
<path d="M300 0H200V400H300V0Z" fill="#BD8F12"/>
<path d="M400 0H300V400H400V0Z" fill="#AF433D"/>
<path d="M500 0H400V400H500V0Z" fill="#1C5897"/>
<path d="M600 0H500V400H600V0Z" fill="#83EC8A"/>
<path d="M700 0H600V400H700V0Z" fill="#BD8F12"/>
<path d="M800 0H700V400H800V0Z" fill="#AF433D"/>
<path d="M900 0H800V400H900V0Z" fill="#1C5897"/>
<path d="M1000 0H900V400H1000V0Z" fill="#83EC8A"/>
<path d="M1100 0H1000V400H1100V0Z" fill="#BD8F12"/>
<path d="M1200 0H1100V400H1200V0Z" fill="#AF433D"/>
<path d="M1200 50H0V350H1200V50Z" fill="#EDF5BE"/>
<path d="M140.796 289.186C145.219 289.186 148.285 288.768 149.997 287.934L150.426 288.039L149.355 314.21H69.2252V174.805C71.1502 174.943 73.2911 175.047 75.6433 175.117L83.1334 175.325C88.1258 175.463 93.5454 175.534 99.3938 175.534C115.726 175.534 131.882 175.256 147.857 174.699C147.073 180.817 146.681 188.984 146.681 199.203C146.681 200.315 146.752 201.149 146.895 201.705L146.681 202.017C142.971 200.975 137.694 200.454 130.847 200.454H97.1481V227.043H122.503C130.348 227.043 135.056 226.834 136.624 226.416L136.945 252.17C133.522 251.823 129.099 251.649 123.68 251.649H97.1481V289.186H140.796ZM242.752 172.927C256.089 172.927 267.465 175.186 276.878 179.704V211.61L276.665 211.819C272.671 205.841 264.255 201.878 251.417 199.932C247.637 199.307 242.858 198.994 237.082 198.994C231.303 198.994 225.633 200.071 220.071 202.226C214.508 204.311 209.943 207.301 206.378 211.193C199.459 218.77 196 229.579 196 243.621C196 259.955 200.385 272.121 209.159 280.114C216.433 286.787 226.062 290.124 238.044 290.124C251.595 290.124 262.579 287.309 270.995 281.679C274.061 279.662 276.665 277.161 278.805 274.171L279.125 274.38V303.574C268.213 312.403 253.52 316.817 235.049 316.817C213.295 316.817 196.249 310.073 183.91 296.588C172.071 283.729 166.151 266.699 166.151 245.497C166.151 223.045 172.642 205.355 185.623 192.425C198.745 179.426 217.788 172.927 242.752 172.927ZM317.747 297.735C311.257 291.688 306.12 284.424 302.341 275.944C298.632 267.463 296.777 258.183 296.777 248.104C296.777 237.956 298.525 228.362 302.02 219.326C305.515 210.289 310.507 202.33 316.997 195.449C323.487 188.567 331.332 183.11 340.533 179.078C349.734 174.977 360.039 172.927 371.451 172.927C391.136 172.927 407.719 178.975 421.198 191.07C435.606 203.999 442.809 221.446 442.809 243.412C442.809 264.682 435.391 282.374 420.557 296.485C411.428 305.174 400.551 311.152 387.926 314.419C381.723 316.018 374.447 316.817 366.102 316.817C357.83 316.817 349.307 315.148 340.533 311.812C331.832 308.475 324.237 303.783 317.747 297.735ZM326.518 246.644C326.518 253.108 327.625 259.052 329.835 264.475C332.046 269.896 335.113 274.554 339.035 278.447C347.38 286.648 358.114 290.75 371.237 290.75C383.719 290.75 393.74 286.822 401.299 278.968C409.002 270.834 412.854 259.748 412.854 245.706C412.854 232.499 409.181 221.481 401.834 212.653C393.919 203.199 383.078 198.472 369.312 198.472C355.975 198.472 345.383 203.269 337.538 212.862C330.192 221.829 326.518 233.089 326.518 246.644ZM468.378 174.805C478.291 173.552 488.454 172.927 498.868 172.927C518.268 172.927 532.996 177.376 543.053 186.273C553.18 195.102 558.244 208.343 558.244 225.999C558.244 241.779 552.717 254.255 541.661 263.432C531.32 272.051 518.017 276.361 501.757 276.361C499.902 276.361 497.869 276.256 495.658 276.047V314.21H468.378V174.805ZM502.078 198.056C499.938 198.056 497.799 198.125 495.658 198.263V253.108C497.941 253.388 500.722 253.526 504.003 253.526C507.285 253.526 510.707 252.866 514.274 251.545C517.84 250.155 520.836 248.243 523.26 245.81C528.324 240.735 530.857 234.062 530.857 225.79C530.857 207.301 521.263 198.056 502.078 198.056ZM591.836 297.735C585.345 291.688 580.211 284.424 576.431 275.944C572.722 267.463 570.868 258.183 570.868 248.104C570.868 237.956 572.616 228.362 576.11 219.326C579.605 210.289 584.597 202.33 591.087 195.449C597.578 188.567 605.423 183.11 614.624 179.078C623.824 174.977 634.13 172.927 645.542 172.927C665.226 172.927 681.809 178.975 695.289 191.07C709.696 203.999 716.9 221.446 716.9 243.412C716.9 264.682 709.482 282.374 694.647 296.485C685.517 305.174 674.642 311.152 662.017 314.419C655.811 316.018 648.537 316.817 640.193 316.817C631.918 316.817 623.395 315.148 614.624 311.812C605.922 308.475 598.327 303.783 591.836 297.735ZM600.609 246.644C600.609 253.108 601.714 259.052 603.925 264.475C606.136 269.896 609.202 274.554 613.126 278.447C621.47 286.648 632.205 290.75 645.327 290.75C657.808 290.75 667.829 286.822 675.39 278.968C683.093 270.834 686.944 259.748 686.944 245.706C686.944 232.499 683.271 221.481 675.925 212.653C668.008 203.199 657.167 198.472 643.402 198.472C630.065 198.472 619.474 203.269 611.628 212.862C604.282 221.829 600.609 233.089 600.609 246.644ZM745.463 314.21C745.892 311.847 746.106 309.274 746.106 306.494V175.534H767.503L824.203 262.494V182.623C824.203 178.801 823.846 176.437 823.132 175.534H852.018C851.662 178.314 851.484 181.372 851.484 184.71V314.21H829.231L773.386 230.691V314.21H745.463ZM941.35 314.835C937.926 314.419 929.118 314.21 914.925 314.21H911.5V198.89H890.318C884.042 198.89 880.333 199.203 879.193 199.828C878.052 200.454 877.16 201.011 876.518 201.497L876.197 201.392V174.699L876.518 174.387C878.872 175.151 885.219 175.534 895.561 175.534H962.639C968.914 175.534 972.623 175.221 973.764 174.596C974.907 173.97 975.797 173.413 976.439 172.927L976.76 173.031V199.723L976.439 200.036C974.085 199.272 967.737 198.89 957.396 198.89H941.35V314.835Z" fill="#0B7E20"/>
<path d="M1040.02 226.179L1056.91 199.487L1045.71 181.691C1044.2 179.271 1042.01 178.06 1039.17 178.06C1036.32 178.06 1034.14 179.271 1032.62 181.691L1014.02 211.29L1040.02 226.179ZM1113.47 275.57L1096.58 248.696L1122.96 234.169L1135.11 253.598C1136.5 255.656 1137.26 257.956 1137.38 260.499C1137.51 263.04 1136.94 265.401 1135.68 267.58C1134.41 270.001 1132.54 271.938 1130.08 273.39C1127.61 274.842 1124.92 275.57 1122.01 275.57H1113.47ZM1091.64 326.412L1061.28 297.359L1091.64 268.306V282.833H1127.7L1116.69 303.896C1115.3 306.317 1113.41 308.254 1111 309.708C1108.6 311.16 1105.94 311.886 1103.03 311.886H1091.64V326.412ZM1018.19 311.886C1015.66 311.886 1013.35 311.251 1011.27 309.979C1009.18 308.708 1007.63 307.044 1006.62 304.985C1005.6 303.05 1005.13 301.021 1005.19 298.902C1005.26 296.784 1005.86 294.818 1007 293.001L1013.45 282.833H1046.09V311.886H1018.19ZM999.405 291.186L987.068 267.58C985.931 265.401 985.392 263.07 985.455 260.589C985.519 258.107 986.247 255.776 987.638 253.598L990.674 248.696L977.769 241.251L1019.33 231.263L1029.77 271.212L1016.68 263.586L999.405 291.186ZM1101.89 229.084L1060.33 219.098L1073.42 211.653L1049.7 173.883H1076.46C1079.12 173.883 1081.62 174.519 1083.96 175.79C1086.3 177.06 1088.16 178.786 1089.56 180.965L1099.42 196.763L1112.33 189.136L1101.89 229.084Z" fill="#0B7E20"/>
<path d="M80.307 157.105C75.0642 157.105 71.5883 157.209 69.8762 157.418V87.454C70.7323 87.6626 72.4976 87.7668 75.1722 87.7668C77.8812 87.7668 81.0206 87.6972 84.5857 87.5583V144.593H95.6597C98.868 144.593 101.436 144.489 103.361 144.28C103.112 152.413 102.987 156.635 102.987 156.948V157.47C99.4924 157.227 93.6268 157.105 85.3886 157.105H80.307ZM151.451 144.593C153.662 144.593 155.196 144.384 156.05 143.967L156.265 144.019L155.729 157.105H115.665V87.402C116.628 87.4714 117.698 87.5235 118.875 87.5583L122.618 87.6626C125.115 87.732 127.825 87.7668 130.749 87.7668C138.915 87.7668 146.993 87.6278 154.981 87.3498C154.588 90.4083 154.393 94.4921 154.393 99.6012C154.393 100.157 154.429 100.574 154.499 100.852L154.393 101.009C152.538 100.488 149.9 100.227 146.475 100.227H129.627V113.521H142.303C146.227 113.521 148.58 113.417 149.364 113.208L149.524 126.085C147.814 125.912 145.602 125.825 142.892 125.825H129.627V144.593H151.451ZM200.983 157.314C199.842 157.175 197.97 157.105 195.366 157.105H189.483C188.519 157.105 187.646 157.14 186.862 157.209L186.809 157.105C186.951 156.861 187.022 156.583 187.022 156.271C187.022 155.958 186.987 155.629 186.915 155.281C186.879 154.933 186.737 154.308 186.488 153.403C186.238 152.5 185.845 151.197 185.311 149.494L183.064 142.508L163.165 87.5583C165.376 87.6972 168.193 87.7668 171.617 87.7668C175.04 87.7668 177.234 87.6278 178.197 87.3498L194.297 134.74L208.418 87.5583C210.558 87.6972 213.198 87.7668 216.336 87.7668C220.614 87.7668 223.111 87.6278 223.824 87.3498L204.299 142.351C204.299 142.351 203.676 144.384 202.428 148.451C201.393 151.926 200.877 154.186 200.877 155.229C200.877 156.236 200.949 156.879 201.091 157.157L200.983 157.314ZM239.604 157.521C236.537 157.244 232.953 157.105 228.853 157.105H224.627L247.896 93.5538C248.93 90.7037 249.447 89.0528 249.447 88.601C249.447 88.1144 249.429 87.819 249.393 87.7146L249.447 87.6105C251.764 87.7146 254.226 87.7668 256.829 87.7668C258.968 87.7668 261.536 87.732 264.532 87.6626L264.585 87.7668C264.513 87.9059 264.478 88.097 264.478 88.3403C264.478 89.0006 265.012 90.7559 266.083 93.6058L289.833 157.262C289.119 157.227 288.282 157.209 287.318 157.209C287.318 157.209 286.392 157.175 284.537 157.105C283.645 157.105 282.844 157.105 282.13 157.105H273.839L268.81 142.09H244.633L239.604 157.521ZM264.638 129.578L256.561 105.336L248.699 129.578H264.638ZM333.857 87.402C338.813 86.7763 343.895 86.4634 349.101 86.4634C358.801 86.4634 366.165 88.6879 371.193 93.1366C376.257 97.5506 378.79 104.172 378.79 113C378.79 120.889 376.026 127.128 370.498 131.716C365.327 136.026 358.676 138.18 350.546 138.18C349.618 138.18 348.602 138.128 347.496 138.024V157.105H333.857V87.402ZM350.706 99.0277C349.637 99.0277 348.566 99.0625 347.496 99.1321V126.555C348.638 126.693 350.028 126.763 351.67 126.763C353.31 126.763 355.02 126.433 356.804 125.773C358.587 125.077 360.085 124.122 361.298 122.905C363.83 120.368 365.096 117.031 365.096 112.895C365.096 103.65 360.299 99.0277 350.706 99.0277ZM412.757 130.152C411.686 130.221 410.545 130.256 409.332 130.256C408.119 130.256 406.32 130.169 403.93 129.995V157.105H389.754V87.402C394.748 86.7763 400.881 86.4634 408.155 86.4634C418.07 86.4634 425.452 88.2534 430.302 91.8332C435.186 95.3783 437.629 100.87 437.629 108.308C437.629 114.077 435.401 119.012 430.943 123.114C429.482 124.434 427.806 125.581 425.915 126.555L436.828 148.972C438.967 153.595 440.607 156.341 441.748 157.209L441.481 157.47C438.022 156.914 432.584 156.931 425.165 157.521L412.757 130.152ZM409.173 98.7671C407.354 98.7671 405.606 98.854 403.93 99.0277V118.943C405.678 119.186 407.728 119.308 410.082 119.308C412.436 119.308 414.414 119.117 416.02 118.735C417.624 118.317 419.015 117.692 420.192 116.858C422.724 115.016 423.989 112.252 423.989 108.568C423.989 104.884 422.669 102.295 420.031 100.8C417.57 99.4449 413.951 98.7671 409.173 98.7671ZM459.455 148.868C456.209 145.844 453.641 142.212 451.752 137.972C449.897 133.732 448.969 129.092 448.969 124.052C448.969 118.978 449.844 114.181 451.591 109.663C453.339 105.145 455.835 101.165 459.079 97.7244C462.325 94.2836 466.247 91.5552 470.848 89.5393C475.448 87.4887 480.601 86.4634 486.307 86.4634C496.149 86.4634 504.441 89.4872 511.18 95.5348C518.383 101.999 521.986 110.723 521.986 121.706C521.986 132.341 518.277 141.187 510.859 148.242C506.295 152.587 500.857 155.575 494.544 157.209C491.442 158.008 487.805 158.408 483.633 158.408C479.496 158.408 475.235 157.575 470.848 155.906C466.497 154.237 462.699 151.892 459.455 148.868ZM463.84 123.322C463.84 126.555 464.392 129.526 465.499 132.237C466.604 134.948 468.137 137.277 470.098 139.223C474.271 143.324 479.639 145.375 486.199 145.375C492.44 145.375 497.452 143.411 501.231 139.484C505.082 135.417 507.007 129.874 507.007 122.853C507.007 116.249 505.172 110.741 501.499 106.327C497.541 101.6 492.12 99.2362 485.237 99.2362C478.568 99.2362 473.272 101.634 469.35 106.431C465.677 110.914 463.84 116.545 463.84 123.322Z" fill="black"/>
</g>
<defs>
<clipPath id="clip0_9_69">
<rect width="1200" height="400" fill="white"/>
</clipPath>
</defs>
</svg>
